<?xml version="1.0" standalone="no"?>
<!DOCTYPE svg PUBLIC "-//W3C//DTD SVG 20010904//EN"
 "http://www.w3.org/TR/2001/REC-SVG-20010904/DTD/svg10.dtd">
<svg version="1.0" xmlns="http://www.w3.org/2000/svg"
 width="400.000000pt" height="400.000000pt" viewBox="0 0 400.000000 400.000000"
 preserveAspectRatio="xMidYMid meet">
<style>
  @media (prefers-color-scheme: dark) {
    g { fill: #ffffff !important; }
  }
</style>
<g transform="translate(0.000000,400.000000) scale(0.100000,-0.100000)"
fill="#000000" stroke="none">
<path d="M0 2000 l0 -2000 2000 0 2000 0 0 2000 0 2000 -2000 0 -2000 0 0
-2000z m1975 1065 c170 -31 276 -79 371 -168 82 -76 121 -132 154 -221 l26
-71 54 -3 c167 -7 292 -37 416 -100 72 -36 174 -117 174 -138 0 -8 -44 -73
-97 -146 l-98 -131 -20 29 c-32 46 -116 124 -155 144 -77 40 -232 57 -265 30
-7 -6 -21 -35 -31 -63 -33 -102 -150 -235 -265 -300 -48 -27 -54 -45 -53 -157
2 -159 44 -283 128 -377 125 -139 381 -158 552 -42 40 27 92 81 113 116 10 16
22 6 111 -84 55 -57 100 -109 100 -116 0 -21 -108 -120 -186 -170 -131 -84
-253 -117 -432 -117 -240 0 -437 88 -575 255 -101 123 -157 259 -177 430 -18
159 5 145 -229 145 -225 0 -225 0 -236 -74 -4 -24 -5 -155 -3 -292 4 -275 8
-295 78 -385 17 -21 29 -43 25 -49 -10 -16 -592 -14 -597 2 -3 7 12 34 33 60
67 85 64 37 64 968 0 943 4 888 -70 982 -19 24 -35 46 -35 51 0 4 235 7 523 7
414 0 539 -3 602 -15z"/>
<path d="M1437 2771 c-44 -4 -71 -11 -77 -21 -6 -9 -10 -143 -10 -312 0 -296
0 -297 22 -312 19 -13 57 -16 220 -16 108 0 220 5 247 11 50 10 52 12 117 112
62 95 128 169 183 205 20 14 22 21 17 59 -16 121 -115 223 -251 260 -56 15
-359 24 -468 14z"/>
</g>
</svg>
